<mxfile host="app.diagrams.net" modified="2022-06-26T17:10:05.451Z" agent="5.0 (Macintosh; Intel Mac OS X 10_15_7) AppleWebKit/537.36 (KHTML, like Gecko) Chrome/103.0.0.0 Safari/537.36" etag="3KhbGAJybe2zko7f0WKt" version="20.0.3" type="github">
  <diagram id="u9ho3DqXbqdaXH7_Vbdk" name="Page-1">
    <mxGraphModel dx="1092" dy="698" grid="1" gridSize="10" guides="1" tooltips="1" connect="1" arrows="1" fold="1" page="1" pageScale="1" pageWidth="827" pageHeight="1169" math="0" shadow="0">
      <root>
        <mxCell id="0" />
        <mxCell id="1" parent="0" />
        <mxCell id="9P0TP8H0pwNGILY8ddhP-1" value="事务A" style="rounded=0;whiteSpace=wrap;html=1;fontSize=16;fillColor=#ffcd28;gradientColor=#ffa500;strokeColor=#d79b00;" vertex="1" parent="1">
          <mxGeometry x="120" y="160" width="339.9999999999999" height="80" as="geometry" />
        </mxCell>
        <mxCell id="9P0TP8H0pwNGILY8ddhP-2" value="事务B" style="rounded=0;whiteSpace=wrap;html=1;fontSize=16;fillColor=#dae8fc;gradientColor=#7ea6e0;strokeColor=#6c8ebf;" vertex="1" parent="1">
          <mxGeometry x="459.9999999999999" y="160" width="339.9999999999999" height="80" as="geometry" />
        </mxCell>
        <mxCell id="9P0TP8H0pwNGILY8ddhP-3" value="begin;" style="rounded=0;whiteSpace=wrap;html=1;fontSize=16;fontFamily=Times New Roman;" vertex="1" parent="1">
          <mxGeometry x="120" y="240" width="339.9999999999999" height="80" as="geometry" />
        </mxCell>
        <mxCell id="9P0TP8H0pwNGILY8ddhP-4" value="begin;" style="rounded=0;whiteSpace=wrap;html=1;fontSize=16;fontFamily=Times New Roman;" vertex="1" parent="1">
          <mxGeometry x="459.9999999999999" y="240" width="339.9999999999999" height="80" as="geometry" />
        </mxCell>
        <mxCell id="9P0TP8H0pwNGILY8ddhP-5" value="&lt;div style=&quot;font-family: Menlo, monospace; font-size: 16px;&quot;&gt;&lt;span style=&quot;background-image: initial; background-position: initial; background-size: initial; background-repeat: initial; background-attachment: initial; background-origin: initial; background-clip: initial; font-size: 16px;&quot;&gt;insert into t_order(order_no, create_date) values(1006,now());&lt;/span&gt;&lt;/div&gt;" style="rounded=0;whiteSpace=wrap;html=1;fontSize=16;labelBackgroundColor=none;fillColor=#d5e8d4;strokeColor=#82b366;" vertex="1" parent="1">
          <mxGeometry x="120" y="320" width="339.9999999999999" height="80" as="geometry" />
        </mxCell>
        <mxCell id="9P0TP8H0pwNGILY8ddhP-6" value="&lt;span style=&quot;font-family: Menlo, monospace; font-size: 16px;&quot;&gt;insert into t_order(order_no, create_date) values(1006,now());&lt;br&gt;&lt;br&gt;发生阻塞....&lt;br&gt;&lt;/span&gt;" style="rounded=0;whiteSpace=wrap;html=1;fontSize=16;labelBackgroundColor=none;fillColor=#f8cecc;strokeColor=#b85450;" vertex="1" parent="1">
          <mxGeometry x="459.9999999999999" y="400" width="339.9999999999999" height="80" as="geometry" />
        </mxCell>
        <mxCell id="9P0TP8H0pwNGILY8ddhP-7" value="" style="rounded=0;whiteSpace=wrap;html=1;fontSize=16;labelBackgroundColor=none;fontColor=default;" vertex="1" parent="1">
          <mxGeometry x="459.9999999999999" y="320" width="339.9999999999999" height="80" as="geometry" />
        </mxCell>
        <mxCell id="9P0TP8H0pwNGILY8ddhP-8" value="" style="rounded=0;whiteSpace=wrap;html=1;fontSize=16;labelBackgroundColor=none;fontColor=default;" vertex="1" parent="1">
          <mxGeometry x="120" y="400" width="339.9999999999999" height="80" as="geometry" />
        </mxCell>
        <mxCell id="9P0TP8H0pwNGILY8ddhP-10" value="&lt;span style=&quot;font-family: Menlo, monospace;&quot;&gt;order_no 为唯一二级索引字段，且表中不存在&amp;nbsp;&lt;/span&gt;&lt;span style=&quot;font-family: Menlo, monospace;&quot;&gt;order_no 为 1006 的记录&lt;/span&gt;&lt;span style=&quot;font-family: Menlo, monospace;&quot;&gt;&lt;br&gt;&amp;nbsp;&lt;/span&gt;" style="text;html=1;align=center;verticalAlign=middle;resizable=0;points=[];autosize=1;strokeColor=none;fillColor=none;fontSize=16;fontFamily=Times New Roman;fontColor=default;" vertex="1" parent="1">
          <mxGeometry x="155" y="485" width="580" height="50" as="geometry" />
        </mxCell>
      </root>
    </mxGraphModel>
  </diagram>
</mxfile>
